# xmcd
#
# Track frame offsets: 
#        150
#        15911
#        37496
#        51543
#        68455
#        78542
#        94640
#        106467
#        112174
#        127549
#
# Disc length: 2136 seconds
#
# Revision: 1
# Processed by: cddbd v1.5.2PL0 Copyright (c) Steve Scherf et al.
# Submitted via: ExactAudioCopy v1.0b3
#
DISCID=7e08560a
DTITLE=Various Artist - Rolling Stone - Rare Trax 087: Rare Pearls
DYEAR=2014
DGENRE=Blues
TTITLE0=Donnie and Joe Emerson - Don’t Fight (Overture Version)
TTITLE1=National Wake - Corner House Stone
TTITLE2=Wayne McGhie - Sounds Of Joy - Fire (She Needs Water)
TTITLE3=Jim Ford - Rising Sign
TTITLE4=Woodchuck - Angry Generation
TTITLE5=Charles Bradley - Menahan Street Band - I’ll Slip Away
TTITLE6=Lynn Castle - Rose Colored Corner
TTITLE7=Mark Lanegan - No Contestar
TTITLE8=Gold Leaves - Won’t You Tell Your Dreams
TTITLE9=Robbie Hill’s Family Affair - Don’t Give Up
EXTD=
EXTT0=
EXTT1=
EXTT2=
EXTT3=
EXTT4=
EXTT5=
EXTT6=
EXTT7=
EXTT8=
EXTT9=
PLAYORDER=
